<svg xmlns="http://www.w3.org/2000/svg" xmlns:xlink="http://www.w3.org/1999/xlink" width="44.581" height="50.215" viewBox="0 0 44.581 50.215">
  <defs>
    <clipPath id="clip-path">
      <rect id="Rectangle_998" data-name="Rectangle 998" width="21.302" height="36.041" fill="#00ba8b"/>
    </clipPath>
  </defs>
  <g id="Group_785" data-name="Group 785" transform="translate(0 0)">
    <g id="Group_782" data-name="Group 782" transform="translate(0 0)">
      <g id="Group_947" data-name="Group 947">
        <path id="Path_669" data-name="Path 669" d="M39.813,23.2c0,3.7-.015,7.4.013,11.1a1.551,1.551,0,0,1-.888,1.548Q29.216,41.4,19.525,47c-.135.077-.276.144-.414.218-.56.3-.845.117-.851-.5-.01-.905-.008-1.812-.008-2.717,0-1.6.015-3.211-.008-4.815a1.263,1.263,0,0,1,.727-1.246c3.977-2.26,7.936-4.556,11.918-6.809A1.428,1.428,0,0,0,31.7,29.7c-.023-4.426.006-8.852-.028-13.279a1.724,1.724,0,0,1,1-1.732C34.7,13.577,36.692,12.4,38.7,11.248c.871-.5,1.107-.371,1.108.619q.011,5.669,0,11.337" transform="translate(4.756 2.858)" fill="#2e7d64"/>
        <path id="Path_670" data-name="Path 670" d="M8.585,16.522a1.372,1.372,0,0,1-.7-.24q-3.209-1.849-6.419-3.7c-.7-.4-.726-.593-.033-1C3.4,10.426,5.392,9.3,7.376,8.159,11.952,5.533,16.533,2.917,21.1.274A1.531,1.531,0,0,1,22.83.262q8.2,4.748,16.419,9.455c1.059.609,2.132,1.194,3.186,1.813.744.436.749.643.034,1.058-2.113,1.227-4.245,2.423-6.347,3.666a1.555,1.555,0,0,1-1.742-.135c-3.875-2.228-7.763-4.435-11.628-6.68a1.4,1.4,0,0,0-1.587,0q-5.735,3.322-11.489,6.612a2.678,2.678,0,0,1-1.09.474" transform="translate(0.241 0)" fill="#fff"/>
        <g id="Group_780" data-name="Group 780" transform="translate(0 14.006)" style="mix-blend-mode: normal;isolation: isolate">
          <g id="Group_779" data-name="Group 779">
            <g id="Group_778" data-name="Group 778" clip-path="url(#clip-path)">
              <path id="Path_671" data-name="Path 671" d="M.009,23.152q0-5.512,0-11.026c0-1.165.11-1.235,1.09-.676,2.008,1.147,4,2.318,6.018,3.449a1.4,1.4,0,0,1,.729,1.411c-.016,4.477.005,8.955-.021,13.432a1.406,1.406,0,0,0,.808,1.416c3.868,2.186,7.7,4.429,11.572,6.612A1.8,1.8,0,0,1,21.3,39.6c-.071,2.25-.018,4.5-.026,6.755,0,.855-.227.987-.968.561Q12.3,42.309,4.3,37.691c-1.171-.674-2.323-1.383-3.526-2A1.308,1.308,0,0,1,0,34.333c.018-3.727.009-7.454.009-11.181" transform="translate(0 -11.11)" fill="#00ba8b"/>
            </g>
          </g>
        </g>
      </g>
    </g>
  </g>
</svg>
