<svg xmlns="http://www.w3.org/2000/svg" width="19.193" height="17.913" viewBox="0 0 19.193 17.913">
  <g id="layers" transform="translate(-1.5 -3)">
    <path id="Path_1420" data-name="Path 1420" d="M20.37,8.2,11.414,3.084a.64.64,0,0,0-.635,0L1.822,8.2a.64.64,0,0,0,.015,1.12l8.957,4.8a.64.64,0,0,0,.6,0l8.957-4.8A.64.64,0,0,0,20.37,8.2ZM11.1,12.83,3.461,8.74,11.1,4.377,18.732,8.74Z" fill="#919e9f"/>
    <path id="Path_1421" data-name="Path 1421" d="M12.265,28.58l8.648-4.757v-1.46l-8.957,4.926L3,22.363v1.46l8.648,4.757a.64.64,0,0,0,.617,0Z" transform="translate(-0.86 -11.104)" fill="#919e9f"/>
    <path id="Path_1422" data-name="Path 1422" d="M3,32.05l8.656,4.616a.64.64,0,0,0,.6,0l8.656-4.616V30.6l-8.957,4.777L3,30.6Z" transform="translate(-0.86 -15.828)" fill="#919e9f"/>
  </g>
</svg>
