<svg xmlns="http://www.w3.org/2000/svg" xmlns:xlink="http://www.w3.org/1999/xlink" width="112.814" height="112.814" viewBox="0 0 112.814 112.814">
  <defs>
    <clipPath id="clip-path">
      <rect id="Rectangle_1740" data-name="Rectangle 1740" width="79.879" height="79.664" fill="none"/>
    </clipPath>
  </defs>
  <g id="Group_1316" data-name="Group 1316" transform="translate(56.331) rotate(45)">
    <g id="Group_1315" data-name="Group 1315" clip-path="url(#clip-path)">
      <path id="Path_1494" data-name="Path 1494" d="M412.285,130.8c0,1.846.044,3.693-.015,5.537-.043,1.336.926,1.518,1.795,1.255a3.524,3.524,0,0,0,1.438-1.012,3.8,3.8,0,0,1,4.183-1.009,3.938,3.938,0,1,1-4.269,6.338,3.242,3.242,0,0,0-1.534-1,1.143,1.143,0,0,0-1.6,1.213q0,5.638,0,11.276c0,.635,0,.636-.614.636H400.313c-.818,0-1.114-.41-.855-1.193a3.1,3.1,0,0,1,.909-1.266,4.25,4.25,0,0,0,1.38-3.29,4.318,4.318,0,0,0-8.579-.656,4.31,4.31,0,0,0,1.323,3.974,2.79,2.79,0,0,1,.951,1.464c.122.621-.145.965-.777.966-3.853,0-7.706,0-11.559.009-.408,0-.53-.123-.528-.53.014-3.637.008-7.275.008-10.913,0-.175,0-.35,0-.525a1.158,1.158,0,0,0-1.517-1.189,3.114,3.114,0,0,0-1.653,1.027,3.831,3.831,0,0,1-2.937,1.3,3.939,3.939,0,1,1,.162-7.875,3.951,3.951,0,0,1,2.837,1.36,2.559,2.559,0,0,0,2,.989,1.023,1.023,0,0,0,1.107-1.035c.013-.147.008-.3.008-.444,0-3.732.005-7.464-.008-11.2,0-.374.079-.518.485-.516,3.826.014,7.652.007,11.478.009.793,0,1.1.43.852,1.186a3.384,3.384,0,0,1-.949,1.336,4.361,4.361,0,0,0,3.755,7.445,4.395,4.395,0,0,0,2.143-7.525,3.128,3.128,0,0,1-.883-1.234c-.254-.787.042-1.207.859-1.207q5.416,0,10.832,0c.2,0,.4,0,.606,0,.507,0,.529.023.53.521q0,2.89,0,5.78" transform="translate(-342.438 -114.425)" fill="#00ba8b"/>
      <path id="Path_1495" data-name="Path 1495" d="M33.421,495.354q2.87,0,5.739,0c.538,0,.547.009.547.539q0,5.557,0,11.115c0,1.383.919,1.923,2.149,1.273a4.35,4.35,0,0,0,1.072-.847,3.864,3.864,0,0,1,5.4-.344,3.932,3.932,0,0,1-1.739,6.87,3.854,3.854,0,0,1-3.761-1.27,2.615,2.615,0,0,0-2.037-.992,1,1,0,0,0-1.063.948,4.115,4.115,0,0,0-.021.565q0,5.517,0,11.034c0,.634,0,.636-.615.636q-5.618,0-11.236,0-1.4,0-.9-1.32a3.425,3.425,0,0,1,.888-1.186,4.182,4.182,0,0,0,1.063-4.676,4.068,4.068,0,0,0-3.534-2.816,4.081,4.081,0,0,0-4.231,2.169,4.313,4.313,0,0,0,.784,5.368,2.82,2.82,0,0,1,.944,1.377c.16.728-.118,1.083-.865,1.083q-5.719,0-11.438,0c-.518,0-.55-.032-.551-.55q0-5.638,0-11.276c0-1.161-.695-1.647-1.807-1.261a3.476,3.476,0,0,0-1.346.938,3.859,3.859,0,0,1-4.611.932,3.939,3.939,0,1,1,4.655-6.16,3.152,3.152,0,0,0,1.5.976,1.149,1.149,0,0,0,1.6-1.209q0-5.638,0-11.276c0-.638,0-.639.652-.639,3.786,0,7.572.014,11.357-.011.864-.006,1,.542.832,1.128a2.792,2.792,0,0,1-.877,1.285,4.333,4.333,0,1,0,6.007.2c-.177-.185-.368-.356-.543-.543a2.2,2.2,0,0,1-.582-1.09c-.125-.624.14-.962.78-.963,1.926,0,3.853,0,5.78,0" transform="translate(0 -455.296)" fill="#0083be"/>
      <path id="Path_1497" data-name="Path 1497" d="M131.244,39.594H125.5c-.539,0-.557-.016-.557-.532q0-5.659,0-11.318c0-.786.45-1.1,1.191-.842a2.833,2.833,0,0,1,1.158.787,4.2,4.2,0,0,0,4.667,1.261,4.16,4.16,0,0,0,3-3.7,4.32,4.32,0,0,0-2.4-4.272,4.387,4.387,0,0,0-4.931.676c-.195.186-.38.382-.572.571a2.422,2.422,0,0,1-.919.573c-.75.254-1.2-.057-1.2-.839q-.006-5.719,0-11.439c0-.488.042-.523.581-.523,3.772,0,7.545-.027,11.317.015a1.183,1.183,0,0,0,1.259-1.607,3.1,3.1,0,0,0-.983-1.544A3.924,3.924,0,1,1,143.2,2.113a3.92,3.92,0,0,1-.731,4.621,3.475,3.475,0,0,0-1.109,1.6,2.261,2.261,0,0,0-.075.476A1.05,1.05,0,0,0,142.44,10q4.426,0,8.852,0c.9,0,1.806.011,2.708-.005.351-.006.468.122.468.472-.009,3.88,0,7.761-.007,11.641,0,.569-.3.8-.861.69a2.912,2.912,0,0,1-1.533-.993,4.252,4.252,0,0,0-3.216-1.365,4.4,4.4,0,0,0-.585,8.769,4.379,4.379,0,0,0,3.99-1.5,2.438,2.438,0,0,1,1.329-.8c.585-.121.875.119.875.71,0,3.826,0,7.653.009,11.479,0,.4-.151.5-.523.5q-5.659-.015-11.318-.005c-1.179,0-1.681.714-1.3,1.83a3.619,3.619,0,0,0,1.038,1.47,3.7,3.7,0,0,1,1.185,2.409,3.921,3.921,0,0,1-1.965,3.794,3.764,3.764,0,0,1-5.01-1.151,3.876,3.876,0,0,1,.595-5.162,2.647,2.647,0,0,0,1.031-2.064,1.042,1.042,0,0,0-1.142-1.125h-5.82" transform="translate(-114.845 0)" fill="#b13fae"/>
    </g>
  </g>
</svg>
