<svg xmlns="http://www.w3.org/2000/svg" width="19.156" height="19.176" viewBox="0 0 19.156 19.176">
  <g id="schematics" transform="translate(-2.998 22.153) rotate(-90)">
    <path id="Path_1419" data-name="Path 1419" d="M20.091,14.63a2.741,2.741,0,0,0-2.736-2.737H7.777a1.37,1.37,0,0,1-1.368-1.368V8.374A2.733,2.733,0,0,0,8.364,6.42h8.4a2.736,2.736,0,1,0,0-1.368h-8.4A2.731,2.731,0,1,0,5.04,8.375v2.149a2.741,2.741,0,0,0,2.737,2.737h9.577a1.37,1.37,0,0,1,1.368,1.369v2.052H16.67v2.052H8.364a2.736,2.736,0,1,0,0,1.368H16.67v2.052h5.473V16.681H20.091ZM19.406,4.367a1.368,1.368,0,1,1-1.368,1.368A1.368,1.368,0,0,1,19.406,4.367ZM4.356,5.735A1.368,1.368,0,1,1,5.724,7.1,1.368,1.368,0,0,1,4.356,5.735Zm1.368,15.05a1.368,1.368,0,1,1,1.368-1.368,1.368,1.368,0,0,1-1.368,1.368Zm15.05-2.736v2.736H18.038V18.05Z" transform="translate(0 0)" fill="#919e9f"/>
  </g>
</svg>
